<?xml version="1.0" standalone="no"?>
<!DOCTYPE svg PUBLIC "-//W3C//DTD SVG 20010904//EN"
 "http://www.w3.org/TR/2001/REC-SVG-20010904/DTD/svg10.dtd">
<svg version="1.0" xmlns="http://www.w3.org/2000/svg"
 width="3000.000000pt" height="818.000000pt" viewBox="0 0 3000.000000 818.000000"
 preserveAspectRatio="xMidYMid meet">

<g transform="translate(0.000000,818.000000) scale(0.100000,-0.100000)"
fill="#000000" stroke="none">
<path d="M13164 5023 c-39 -49 -110 -136 -158 -195 l-87 -107 234 -328 c229
-321 234 -329 222 -358 l-11 -30 -521 -5 -521 -5 -127 -150 -126 -150 768 -5
768 -5 50 -28 c42 -23 72 -56 170 -187 l120 -159 313 0 312 -1 -83 113 c-46
61 -339 459 -651 882 -313 424 -576 778 -585 788 -16 16 -21 13 -87 -70z"/>
<path d="M21182 5038 c-5 -7 -16 -26 -25 -43 l-15 -30 425 -310 c234 -170 429
-311 434 -313 4 -2 43 17 86 42 43 24 162 89 264 143 l186 98 -290 213 -291
212 -382 0 c-293 0 -384 -3 -392 -12z"/>
<path d="M6256 5030 c-179 -22 -280 -85 -327 -205 -22 -56 -23 -73 -24 -285 0
-275 9 -315 91 -397 41 -41 64 -55 118 -72 121 -37 207 -41 981 -41 663 0 753
-2 773 -16 21 -15 22 -21 22 -177 -1 -147 -3 -164 -21 -186 l-20 -24 -994 5
c-1108 6 -1043 10 -1030 -60 20 -105 96 -189 201 -222 127 -39 195 -41 1119
-37 807 3 896 5 956 21 147 38 225 118 249 254 19 105 9 503 -14 564 -25 66
-85 131 -147 157 -120 52 -136 53 -989 58 -703 4 -797 7 -812 20 -16 14 -18
36 -18 169 0 147 1 154 22 168 20 14 127 16 953 16 l931 0 11 31 c10 26 9 37
-3 61 -44 84 -140 151 -266 185 -56 15 -150 17 -878 19 -448 1 -846 -2 -884
-6z"/>
<path d="M9092 5012 l-32 -27 0 -837 0 -838 260 0 260 0 0 313 0 314 23 21 23
22 711 0 c428 0 752 4 814 11 191 19 295 72 346 177 l28 57 0 285 c0 279 -1
286 -24 338 -38 84 -109 136 -233 169 -57 15 -162 17 -1103 20 l-1040 3 -33
-28z m1852 -292 c63 -32 71 -57 71 -209 0 -156 -8 -180 -73 -209 -33 -15 -105
-17 -671 -20 l-634 -3 -29 28 -28 27 0 182 0 182 28 21 c27 21 33 21 667 18
546 -2 644 -4 669 -17z"/>
<path d="M15250 5029 c-99 -12 -165 -32 -221 -67 -58 -37 -87 -77 -110 -154
-18 -55 -19 -102 -19 -633 0 -549 1 -576 20 -639 34 -109 100 -165 242 -203
56 -15 156 -17 929 -20 709 -3 883 -1 961 10 105 16 202 54 241 95 33 34 63
104 72 165 l6 47 -944 0 -943 0 -27 28 -27 28 0 507 0 506 30 16 c25 13 147
15 975 15 l945 0 0 25 c0 52 -40 132 -89 178 -57 53 -135 82 -270 97 -106 12
-1664 11 -1771 -1z"/>
<path d="M18120 4875 l0 -165 1178 2 1177 3 3 163 2 162 -1180 0 -1180 0 0
-165z"/>
<path d="M18120 3885 l0 -575 1165 0 1165 0 0 145 0 145 -872 0 -873 1 -27 24
-28 24 0 234 c0 231 0 234 23 255 23 22 24 22 525 22 l502 0 0 150 0 150 -790
0 -790 0 0 -575z"/>
<path d="M23010 4144 c-47 -36 -145 -113 -218 -171 -127 -102 -132 -107 -115
-124 10 -9 180 -134 377 -278 l359 -261 393 0 393 0 16 31 c9 17 15 34 13 39
-3 10 -1119 830 -1128 829 -3 0 -43 -30 -90 -65z"/>
</g>
</svg>
